<?xml version="1.0" encoding="utf-8"?>
<!-- Generator: Adobe Illustrator 22.0.1, SVG Export Plug-In . SVG Version: 6.00 Build 0)  -->
<svg version="1.1" id="Layer_1" xmlns="http://www.w3.org/2000/svg" xmlns:xlink="http://www.w3.org/1999/xlink" x="0px" y="0px"
	 viewBox="0 0 64 64" style="enable-background:new 0 0 64 64;" xml:space="preserve">
<style type="text/css">
	.st0{fill:none;}
	.st1{fill:#0086EA;}
	.st2{fill:#113961;}
	.st3{fill:#E01305;}
</style>
<title>static_appendix-c</title>
<g>
	<path class="st0" d="M45.7999992,31c0.2999992-0.2999992,0.7000008-0.3999996,1.0999985-0.3999996
		c0.2000008,0,0.5,0,0.7000008,0.1000004c0.0999985,0,0.2999992,0.1000004,0.4000015,0.2000008l0.4000015,1.7000008h1.2999992
		l0.0999985-2.5L49.0999985,30L48,29.7999992c-0.2999992,0-0.7000008-0.1000004-1-0.1000004
		c-0.7999992,0-1.5999985,0.2000008-2.2999992,0.5C44,30.5999985,43.5,31.0999985,43.1000023,31.7999992
		C42.7000008,32.5,42.5000038,33.3999977,42.5000038,34.2000008c0,0.7999992,0.0999985,1.5999985,0.5,2.4000015
		c0.2999992,0.5999985,0.9000015,1.2000008,1.5,1.5c0.7000008,0.4000015,1.5999985,0.5999985,2.4000015,0.5
		c0.2999992,0,0.7000008,0,1-0.0999985c0.2999992,0,0.5-0.0999985,0.7999992-0.2000008l0.4000015-0.0999985l0.4000015-0.0999985
		l0.2000008-1.9000015l-1.0999985-0.0999985L48,37.5c-0.0999985,0.0999985-0.2000008,0.2000008-0.4000015,0.2999992
		s-0.5,0.0999985-0.7000008,0.0999985c-0.4000015,0-0.9000015-0.2000008-1.2000008-0.5C45.4000015,37,45.0999985,36.5,45,36
		c-0.2000008-0.5999985-0.2999992-1.2999992-0.2000008-1.9000015c0-0.5999985,0.0999985-1.2999992,0.2000008-1.9000015
		C45.0999985,31.7000008,45.4000015,31.2999992,45.7999992,31z"/>
	<path class="st0" d="M14.3000002,6C13.6999998,5.9000001,13.1000004,6.1999998,13,6.8000002h2.1000004
		C15,6.4000001,14.6999998,6.0999999,14.3000002,6z"/>
	<path class="st1" d="M29.8999996,27.7000008c0-0.5-0.3999996-0.8999996-0.8999996-0.8999996H16.7999992
		c-0.5,0-0.8999996,0.3999996-0.8999996,0.8999996s0.3999996,0.8999996,0.8999996,0.8999996H29
		C29.5,28.6000004,29.8999996,28.2000008,29.8999996,27.7000008z"/>
	<path class="st2" d="M44.7000008,58.0999985H13.3000002v-1.7000008H42c0.5,0,0.9000015-0.4000015,0.9000015-0.9000015v-8.2999992
		c-0.5999985-0.2000008-1.2000008-0.4000015-1.7000008-0.5999985v8h-30.5v-1.7999992H38.5
		c0.5,0,0.9000015-0.4000015,0.9000015-0.9000015v-6.2999992c-0.5999985-0.4000015-1.2000008-0.9000015-1.7000008-1.2999992
		v6.7999992H8.1000004V8.5h3.1999998v6.3000002C11.1999998,16.3999996,12.4000006,17.7000008,14,17.7999992
		c1.6000004,0.1000004,2.8999996-1.1000004,3-2.6999998c0-0.1000004,0-0.1999998,0-0.3000002v-3.8999996
		C17,10.3999996,16.6000004,10,16.1000004,10s-0.8999996,0.3999996-0.8999996,0.8999996v3.8999996
		c0.1000004,0.6000004-0.3999996,1.1000004-1,1.1999998s-1.1000004-0.3999996-1.1999998-1c0-0.1000004,0-0.1000004,0-0.1999998V8.5
		h24.7000008v16.2000008c0.5-0.5,1.0999985-0.8999996,1.7000008-1.2999992V11.1999998h1.7000008V22.5
		c0.5999985-0.2000008,1.0999985-0.3999996,1.7000008-0.6000004v-8.1000004h1.7000008V21.5
		c0.5999985-0.1000004,1.2000008-0.1000004,1.7000008-0.2000008v-8.3999996c0-0.5-0.4000015-0.8999996-0.9000015-0.8999996
		h-2.5999985v-1.6999998c0-0.5-0.4000015-0.8999996-0.9000015-0.8999996l0,0h-2.5999985V7.6999998
		c0-0.5-0.4000015-0.9000001-0.9000015-0.9000001H16.8999996c-0.2000008-1.5999999-1.6000004-2.7000003-3.1000004-2.5
		c-1.3000002,0.0999999-2.3999996,1.2000003-2.5,2.5h-4c-0.5,0-0.9000001,0.4000001-0.9000001,0.9000001V52
		c0,0.5,0.4000001,0.9000015,0.9000001,0.9000015H9V55.5c0,0.5,0.3999996,0.9000015,0.8999996,0.9000015h1.6999998V59
		c0,0.5,0.3999996,0.9000015,0.8999996,0.9000015h33C46,59.9000015,46.4000015,59.5,46.4000015,59V47.7999992
		c-0.5999985,0-1.2000008-0.0999985-1.7000008-0.2000008V58.0999985z M14.3000002,6
		C14.6999998,6.0999999,15,6.4000001,15.1000004,6.8000002H13C13.1000004,6.1999998,13.6999998,5.8000002,14.3000002,6z"/>
	<path class="st3" d="M46.5999985,23.1000004L46.5999985,23.1000004c-6.2000008,0-11.2000008,5-11.2000008,11.1999989
		S40.3999977,45.5,46.5999985,45.5s11.2000008-5,11.2000008-11.2000008
		C57.7999992,28.2000008,52.7999992,23.1000004,46.5999985,23.1000004z M45,36c0.0999985,0.5,0.4000015,1,0.7000008,1.2999992
		s0.7000008,0.5,1.2000008,0.5c0.2000008,0,0.5,0,0.7000008-0.0999985S47.9000015,37.5,48.0000038,37.4000015l0.5999985-1.2000008
		l1.0999985,0.0999985L49.5,38.2000008l-0.4000015,0.0999985l-0.4000015,0.0999985
		c-0.2999992,0.0999985-0.5999985,0.2000008-0.7999992,0.2000008c-0.2999992,0.0999985-0.7000008,0.0999985-1,0.0999985
		c-0.7999992,0-1.5999985-0.2000008-2.4000015-0.5c-0.5999985-0.2999992-1.2000008-0.9000015-1.5-1.5
		c-0.2999992-0.7000008-0.5-1.5-0.5-2.4000015c0-0.7999992,0.2000008-1.7000008,0.5999985-2.3999996
		c0.4000015-0.7000008,0.9000015-1.2000008,1.5999985-1.6000004c0.7000008-0.3999996,1.5-0.6000004,2.2999992-0.5
		c0.2999992,0,0.7000008,0,1,0.1000004l1.0999985,0.2000008l0.5999985,0.1000004l-0.0999985,2.5h-1.2999992l-0.4000015-1.7000008
		c-0.0999985-0.1000004-0.2000008-0.2000008-0.4000015-0.2000008c-0.2000008-0.1000004-0.5-0.1000004-0.7000008-0.1000004
		c-0.4000015,0-0.7999992,0.1000004-1.0999985,0.3999996c-0.4000015,0.2999992-0.5999985,0.7000008-0.7999992,1.2000008
		c-0.2000008,0.5999985-0.2999992,1.2999992-0.2000008,1.9000015C44.7000008,34.7000008,44.7999992,35.4000015,45,36z"/>
	<path class="st1" d="M29,25.1000004L29,25.1000004c0.5,0,0.8999996-0.3999996,0.8999996-0.8999996l0,0
		c0-0.5-0.3999996-0.8999996-0.8999996-0.8999996H16.7999992l0,0c-0.5,0-0.8999996,0.3999996-0.8999996,0.8999996
		s0.3999996,0.8999996,0.8999996,0.8999996H29z"/>
	<path class="st1" d="M20.2999992,30.2999992L20.2999992,30.2999992c-0.5,0-0.8999996,0.3999996-0.8999996,0.8999996
		s0.3999996,0.8999996,0.8999996,0.8999996H25.5c0.5,0,0.8999996-0.3999996,0.8999996-0.8999996S26,30.2999992,25.5,30.2999992
		H20.2999992z"/>
</g>
</svg>
