<?xml version="1.0" encoding="utf-8"?>
<!-- Generator: Adobe Illustrator 22.0.1, SVG Export Plug-In . SVG Version: 6.00 Build 0)  -->
<svg version="1.1" id="Layer_1" xmlns="http://www.w3.org/2000/svg" xmlns:xlink="http://www.w3.org/1999/xlink" x="0px" y="0px"
	 viewBox="0 0 64 64" style="enable-background:new 0 0 64 64;" xml:space="preserve">
<style type="text/css">
	.st0{fill:#0086EA;}
	.st1{fill:#113961;}
</style>
<title>static_guidelines-manual</title>
<circle class="st0" cx="38.5" cy="53.5999985" r="0.9000015"/>
<circle class="st0" cx="42.0999985" cy="50.0999985" r="0.9000015"/>
<path class="st1" d="M58.2000008,4.1999998h-7.0999985c-0.5,0-0.9000015,0.4000001-0.9000015,0.9000001S50.6000023,6,51.1000023,6
	h6.2000008v52.2000008h-8.9000015V5C48.4000015,4.5,48,4.0999999,47.5,4.0999999H10.1000004
	C9.6000004,4.0999999,9.1999998,4.5,9.1999998,5l0,0v3h-2C5.6999998,8,4.5,9.1999998,4.5,10.6999998
	s1.1999998,2.6999998,2.6999998,2.6999998h2.0999994v8.8999996H7.1999998C5.6999998,22.2999992,4.5,23.5,4.5,25
	s1.1999998,2.7000008,2.6999998,2.7000008h2.0999994v8.8999977H7.1999998c-1.5,0-2.6999998,1.2000008-2.6999998,2.7000008
	S5.6999998,42,7.1999998,42h2.0999994v8.9000015H7.1999998c-1.5,0-2.6999998,1.2000008-2.6999998,2.7000008
	s1.1999998,2.7000008,2.6999998,2.7000008h2.0999994v3c0,0.5,0.3999996,0.9000015,0.8999996,0.9000015h48.0999985
	c0.5,0,0.9000015-0.4000015,0.9000015-0.9000015V5C59,4.5,58.7000008,4.0999999,58.2000008,4.1999998z M6.3000002,10.6999998
	c0-0.5,0.4000001-0.8999996,0.9000001-0.8999996l0,0h5.9000001c0.5,0,0.8999996,0.3999996,0.8999996,0.8999996
	s-0.3999996,0.8999996-0.8999996,0.8999996H7.1999998C6.6999998,11.6000004,6.3000002,11.1999998,6.3000002,10.6999998z
	 M6.3000002,24.8999996c0-0.5,0.4000001-0.8999996,0.9000001-0.8999996l0,0h5.9000001C13.6000004,24,14,24.3999996,14,24.8999996
	s-0.3999996,0.8999996-0.8999996,0.8999996H7.1999998C6.6999998,25.7999992,6.3000002,25.3999996,6.3000002,24.8999996
	L6.3000002,24.8999996z M6.3000002,39.2000008c0-0.5,0.4000001-0.9000015,0.9000001-0.9000015h5.9000001
	c0.5,0,0.8999996,0.4000015,0.8999996,0.9000015s-0.3999996,0.9000015-0.8999996,0.9000015l0,0H7.1999998
	C6.6999998,40,6.3000002,39.5999985,6.3000002,39.2000008L6.3000002,39.2000008z M6.3000002,53.4000015
	c0-0.5,0.4000001-0.9000015,0.9000001-0.9000015h5.9000001C13.6000004,52.5,14,52.9000015,14,53.4000015
	s-0.3999996,0.9000015-0.8999996,0.9000015H7.1999998C6.6999998,54.2999992,6.3000002,53.9000015,6.3000002,53.4000015
	L6.3000002,53.4000015z M11,56.0999985h2.1000004c1.5,0,2.6999998-1.2000008,2.6999998-2.7000008
	s-1.1999998-2.7000008-2.6999998-2.7000008l0,0H11v-8.9000015h2.1000004c1.5,0,2.6999998-1.2000008,2.6999998-2.7000008
	s-1.1999998-2.7000008-2.6999998-2.7000008l0,0H11v-8.8999996h2.1000004c1.5,0,2.6999998-1.2000008,2.6999998-2.7000008
	s-1.1999998-2.7000008-2.6999998-2.7000008l0,0H11v-8.8999996h2.1000004c1.5,0,2.6999998-1.1999998,2.6999998-2.6999998
	s-1.1999998-2.6999998-2.6999998-2.6999998H11V5.9000001h35.5999985v52.2000008H11V56.0999985z"/>
<path class="st0" d="M51.0999985,56.4000015C51.5999985,56.4000015,52,56,52,55.5V8.6000004
	c0-0.5-0.4000015-0.9000001-0.9000015-0.9000001s-0.9000015,0.4000001-0.9000015,0.9000001l0,0V55.5
	C50.2000008,56,50.5999985,56.4000015,51.0999985,56.4000015z"/>
<path class="st0" d="M55.5,55.5V8.6000004c0-0.5-0.4000015-0.9000001-0.9000015-0.9000001s-0.9000015,0.4000001-0.9000015,0.9000001
	l0,0V55.5c0,0.5,0.4000015,0.9000015,0.9000015,0.9000015S55.5,56,55.5,55.5z"/>
</svg>
