<?xml version="1.0" encoding="utf-8"?>
<!-- Generator: Adobe Illustrator 22.0.1, SVG Export Plug-In . SVG Version: 6.00 Build 0)  -->
<svg version="1.1" id="Layer_1" xmlns="http://www.w3.org/2000/svg" xmlns:xlink="http://www.w3.org/1999/xlink" x="0px" y="0px"
	 viewBox="0 0 64 64" style="enable-background:new 0 0 64 64;" xml:space="preserve">
<style type="text/css">
	.st0{fill:#0086EA;}
	.st1{fill:#113961;}
	.st2{fill:#E01305;}
</style>
<title>static_drug-equivalency</title>
<g>
	<path class="st0" d="M28.2999992,28.7000008c0.1000004-0.6000004,0.2999992-1.1000004,0.5-1.6000004h-3.5
		C24.8999996,27.1000004,24.5,27.5,24.5,27.8999996v3c0,0.3999996,0.2999992,0.7999992,0.7999992,0.7999992h2.6000004
		c0-0.6000004,0.1000004-1,0.2000008-1.6000004h-2v-1.5L28.2999992,28.7000008z"/>
	<path class="st0" d="M24.5,34.9000015v3c0,0.4000015,0.2999992,0.7999992,0.7999992,0.7999992h3.7999992
		c-0.2000008-0.5999985-0.3999996-1.0999985-0.5-1.7000008v0.2000008H26v-1.5h2.1000004
		c-0.1000004-0.5-0.1000004-1-0.2000008-1.5999985h-2.7000008C24.7999992,34.0999985,24.5,34.5,24.5,34.9000015L24.5,34.9000015z"/>
	<path class="st0" d="M31.3999996,42.7999992c-0.3999996-0.5-0.7000008-1-1.1000004-1.5999985h-5.1000004
		c-0.3999996,0-0.7999992,0.4000015-0.7999992,0.7999992l0,0v3c0,0.4000015,0.2999992,0.7999992,0.7999992,0.7999992h9.1999989
		c-0.5999985-0.5-1.2000008-1-1.7999992-1.5999985H26v-1.4000015H31.3999996z"/>
	<path class="st0" d="M24.5,49.0999985v3c0,0.4000015,0.2999992,0.7999992,0.7999992,0.7999992h12.1000023
		c0.4000015,0,0.7999992-0.2999992,0.7999992-0.7999992v-3c0-0.4000015-0.2999992-0.7999992-0.7999992-0.7999992H25.2999992
		C24.7999992,48.2999992,24.5,48.5999985,24.5,49.0999985z M26,49.7999992h10.5999985v1.5H26V49.7999992z"/>
	<path class="st1" d="M38.2000008,16.7000008L38.2000008,16.7000008v-5.1000004
		c0-0.3999996-0.2999992-0.8000002-0.7999992-0.8000002H9.1000004c-0.3999996,0-0.8000002,0.3000002-0.8000002,0.8000002v12.1999989
		c0,0.3999996,0.3999996,0.7999992,0.8000002,0.7999992h20.7999992c0.2999992-0.5,0.5-1,0.7999992-1.5H9.8999996V12.3999996
		h26.7999973v5.1999989C37.0999985,17.2999992,37.7000008,17,38.2000008,16.7000008z"/>
	<path class="st0" d="M13.8999996,30.7999992v-3C13.8999996,27.3999996,13.5,27,13.0999994,27h-4l0,0
		c-0.3999996,0-0.8000002,0.3999996-0.6999998,0.7999992v3c0,0.3999996,0.3000002,0.7999992,0.8000002,0.7999992h4
		C13.6000004,31.6000004,13.8999996,31.2999992,13.8999996,30.7999992L13.8999996,30.7999992z M12.3000002,30.1000004H9.8999996
		v-1.5h2.5v1.5H12.3000002z"/>
	<path class="st0" d="M22,27.7999992C22,27.3999996,21.6000004,27,21.2000008,27h-4
		c-0.3999996,0-0.7999992,0.3999996-0.7999992,0.7999992v3c0,0.3999996,0.2999992,0.7999992,0.7999992,0.7999992h4l0,0
		C21.6000004,31.5999985,22,31.2999992,22,30.7999992V27.7999992z M18,30.1000004v-1.5h2.3999996v1.5H18z"/>
	<path class="st0" d="M13.8999996,34.9000015c0-0.4000015-0.3000002-0.7999992-0.8000002-0.7999992h-4
		c-0.3999996,0-0.8000002,0.2999992-0.8000002,0.7999992v3c0,0.4000015,0.3000002,0.7999992,0.8000002,0.7999992h4
		c0.3999996,0,0.8000002-0.2999992,0.8000002-0.7999992V34.9000015z M12.3000002,37.2000008H9.8999996v-1.5h2.5v1.5H12.3000002z"/>
	<path class="st0" d="M22,34.9000015c0-0.4000015-0.3999996-0.7999992-0.7999992-0.7999992h-4
		c-0.3999996,0-0.7999992,0.2999992-0.7999992,0.7999992v3c0,0.4000015,0.2999992,0.7999992,0.7999992,0.7999992h4
		C21.6000004,38.7000008,22,38.4000015,22,37.9000015V34.9000015z M18,37.2000008v-1.5h2.3999996v1.5H18z"/>
	<path class="st0" d="M13.8999996,45v-3c0-0.4000015-0.3000002-0.7999992-0.8000002-0.7999992h-4
		c-0.3999996,0-0.8000002,0.4000015-0.8000002,0.7999992v3c0,0,0,0,0,0.0999985
		c0,0.4000015,0.3999996,0.7999992,0.8000002,0.7000008h4C13.6000004,45.7999992,13.8999996,45.4000015,13.8999996,45L13.8999996,45
		z M12.3000002,44.2000008H9.8999996v-1.5h2.5v1.5H12.3000002z"/>
	<path class="st0" d="M22,42c0-0.4000015-0.3999996-0.7999992-0.7999992-0.7999992h-4
		C16.8000011,41.2000008,16.4000015,41.5,16.4000015,42v3c0,0.4000015,0.2999992,0.7999992,0.7999992,0.7999992h4
		C21.6000004,45.7999992,22,45.5,22,45V42z M18,44.2000008v-1.5h2.3999996v1.5H18z"/>
	<path class="st0" d="M13.1000004,48.2999992h-4c-0.3999996,0-0.8000002,0.4000015-0.8000002,0.7999992v3
		c0,0.4000015,0.3000002,0.7999992,0.8000002,0.7999992h4c0.3999996,0,0.8000002-0.4000015,0.8000002-0.7999992v-3l0,0l0,0
		C13.8999996,48.5999985,13.6000004,48.2999992,13.1000004,48.2999992z M9.8999996,51.2999992v-1.5h2.5v1.5H9.8999996z"/>
	<path class="st0" d="M21.2000008,48.2999992h-4c-0.3999996,0-0.7999992,0.2999992-0.7999992,0.7999992v3
		c0,0.4000015,0.2999992,0.7999992,0.7999992,0.7999992h4C21.6000004,52.8999977,22,52.4999962,22,52.0999985v-3
		C22,48.5999985,21.7000008,48.2999992,21.2000008,48.2999992z M18,51.2999992v-1.5h2.3999996v1.5H18z"/>
	<path class="st1" d="M40.7000008,52.0999985c0,1.7999992-1.5,3.2000008-3.2999992,3.2999992H9.1000004
		c-0.8999996,0-1.6999998-0.4000015-2.3000002-1s-1-1.4000015-1-2.2999992v-40.5c0-0.8999996,0.4000001-1.6999998,1-2.3000002
		s1.3999996-1,2.3000002-1h28.3000011c0.7999992,0,1.7000008,0.3000002,2.2999992,0.8999996
		c0.5999985,0.6000004,1,1.3999996,1,2.3000002v4.3000002c0.5-0.1000004,1-0.1999998,1.5999985-0.1999998l0,0v-4
		c0-1.3000002-0.5-2.5-1.4000015-3.3999996l-0.0999985-0.1000004C39.8999977,7.2000003,38.7000008,6.7000003,37.5,6.7000003
		H9.1000004c-1.3000002,0-2.5,0.5-3.4000001,1.4000001S4.3000002,10.2000008,4.3000002,11.5V52
		c0,1.2999992,0.5,2.5,1.4000001,3.4000015s2.0999999,1.4000015,3.4000001,1.4000015h28.3000011
		c2.7000008,0,4.7999992-2.2000008,4.7999992-4.7999992v-2.9000015c-0.5-0.0999985-1-0.2000008-1.5999985-0.2999992v3.2999954
		H40.7000008z"/>
	<path class="st2" d="M45.0999985,17.6000004c-8.2000008,0-14.7999992,6.6000004-14.7999992,14.8000011
		s6.5999985,14.7999992,14.7999992,14.7999992s14.7999992-6.5999985,14.7999992-14.7999992l0,0l0,0
		C59.9000015,24.2000008,53.2999992,17.6000004,45.0999985,17.6000004z M36.4000015,28.8999996
		c0-0.2999992,0.2999992-0.5,0.5999985-0.5h5V29.5h-5C36.7000008,29.5,36.4000015,29.2000008,36.4000015,28.8999996
		L36.4000015,28.8999996z M51,39.5v-2.2000008h-5.5999985v-1.0999985H51V34l3.2999992,2.7999992L51,39.5z M51,31.7000008V29.5
		h-6.7000008v7.2999992c0,0.2999992-0.2999992,0.5999985-0.5999985,0.5999985H37
		c-0.2999992,0-0.5999985-0.2999992-0.5999985-0.5999985S36.6000023,36.2000008,37,36.2000008h6.0999985v-7.2999992
		c0-0.2999992,0.2999992-0.6000004,0.5999985-0.6000004H51v-2.2000008l3.2999992,2.7999992L51,31.7000008z"/>
</g>
</svg>
