<?xml version="1.0" encoding="utf-8"?>
<!-- Generator: Adobe Illustrator 22.0.1, SVG Export Plug-In . SVG Version: 6.00 Build 0)  -->
<svg version="1.1" id="Layer_1" xmlns="http://www.w3.org/2000/svg" xmlns:xlink="http://www.w3.org/1999/xlink" x="0px" y="0px"
	 viewBox="0 0 64 64" style="enable-background:new 0 0 64 64;" xml:space="preserve">
<style type="text/css">
	.st0{fill:#113961;}
	.st1{fill:#0086EA;}
	.st2{fill:#E01305;}
</style>
<title>static_appendix-b</title>
<g>
	<path class="st0" d="M44.7000008,58.0999985H13.3000002v-1.7000008H42c0.5,0,0.9000015-0.4000015,0.9000015-0.9000015v-8.2999992
		c-0.5999985-0.2000008-1.2000008-0.4000015-1.7000008-0.5999985v8h-30.5v-1.7999992H38.5
		c0.5,0,0.9000015-0.4000015,0.9000015-0.9000015v-6.2999992c-0.5999985-0.4000015-1.2000008-0.9000015-1.7000008-1.2999992
		v6.7999992H8.1000004V8.5h3.1999998v6.3000002C11.1999998,16.3999996,12.4000006,17.7000008,14,17.7999992
		c1.6000004,0.1000004,2.8999996-1.1000004,3-2.6999998c0-0.1000004,0-0.1999998,0-0.3000002v-3.8999996
		C17,10.3999996,16.6000004,10,16.1000004,10s-0.8999996,0.3999996-0.8999996,0.8999996v3.8999996
		c0.1000004,0.6000004-0.3999996,1.1000004-1,1.1999998s-1.1000004-0.3999996-1.1999998-1c0-0.1000004,0-0.1000004,0-0.1999998V8.5
		h24.7000008v16.2000008c0.5-0.5,1.0999985-0.8999996,1.7000008-1.2999992V11.1999998h1.7000008V22.5
		c0.5999985-0.2000008,1.0999985-0.3999996,1.7000008-0.6000004v-8.1000004h1.7000008V21.5
		c0.5999985-0.1000004,1.2000008-0.1000004,1.7000008-0.2000008v-8.3999996c0-0.5-0.4000015-0.8999996-0.9000015-0.8999996
		h-2.5999985v-1.6999998c0-0.5-0.4000015-0.8999996-0.9000015-0.8999996l0,0h-2.5999985V7.6999998
		c0-0.5-0.4000015-0.9000001-0.9000015-0.9000001H16.8999996c-0.2000008-1.5999999-1.6000004-2.7000003-3.1000004-2.5
		c-1.3000002,0.0999999-2.3999996,1.2000003-2.5,2.5h-4c-0.5,0-0.9000001,0.4000001-0.9000001,0.9000001V52
		c0,0.5,0.4000001,0.9000015,0.9000001,0.9000015H9V55.5c0,0.5,0.3999996,0.9000015,0.8999996,0.9000015h1.6999998V59
		c0,0.5,0.3999996,0.9000015,0.8999996,0.9000015h33C46,59.9000015,46.4000015,59.5,46.4000015,59V47.7999992
		c-0.5999985,0-1.2000008-0.0999985-1.7000008-0.2000008V58.0999985z M14.3000002,6
		C14.6999998,6.0999999,15,6.4000001,15.1000004,6.8000002H13C13.1000004,6.1999998,13.6999998,5.8000002,14.3000002,6z"/>
	<path class="st1" d="M29,25.1000004L29,25.1000004c0.5,0,0.8999996-0.3999996,0.8999996-0.8999996l0,0
		c0-0.5-0.3999996-0.8999996-0.8999996-0.8999996H16.7999992l0,0c-0.5,0-0.8999996,0.3999996-0.8999996,0.8999996
		s0.3999996,0.8999996,0.8999996,0.8999996H29z"/>
	<path class="st1" d="M29.8999996,27.7000008c0-0.5-0.3999996-0.8999996-0.8999996-0.8999996H16.7999992
		c-0.5,0-0.8999996,0.3999996-0.8999996,0.8999996s0.3999996,0.8999996,0.8999996,0.8999996H29
		C29.5,28.6000004,29.8999996,28.2000008,29.8999996,27.7000008z"/>
	<path class="st1" d="M20.2999992,30.2999992L20.2999992,30.2999992c-0.5,0-0.8999996,0.3999996-0.8999996,0.8999996
		s0.3999996,0.8999996,0.8999996,0.8999996H25.5c0.5,0,0.8999996-0.3999996,0.8999996-0.8999996S26,30.2999992,25.5,30.2999992
		H20.2999992z"/>
	<path class="st2" d="M46.5999985,23.1000004L46.5999985,23.1000004L46.5999985,23.1000004
		c-6.2000008,0-11.2000008,5-11.2000008,11.1999989S40.3999977,45.5,46.5999985,45.5s11.2000008-5,11.2000008-11.2000008
		C57.7999992,28.2000008,52.7999992,23.1000004,46.5999985,23.1000004z M46.7999992,38.5999985h-3.9000015v-0.7999992
		l0.9000015-0.0999985v-6.8999996l-0.9000015-0.2000008v-0.8999996h3.7000008c0.7000008,0,1.2999992,0.1000004,2,0.2000008
		c0.4000015,0.1000004,0.7000008,0.2999992,1,0.7000008c0.2000008,0.2999992,0.2999992,0.7000008,0.2999992,1.1000004
		c0,0.3000011-0.0999985,0.6999989-0.2000008,1.0000019c-0.2000008,0.2999992-0.4000015,0.5999985-0.7000008,0.7000008
		c-0.2999992,0.2000008-0.5999985,0.2999992-1,0.4000015c0.5,0,0.9000015,0.0999985,1.2999992,0.2000008
		c0.4000015,0.0999985,0.7000008,0.4000015,0.9000015,0.7000008s0.2999992,0.7000008,0.2999992,1.0999985
		C50.5999985,37.7000008,49.2999992,38.5999985,46.7999992,38.5999985z"/>
	<path class="st2" d="M47.5999985,34.5999985C47.2999992,34.5,47,34.3999977,46.6999969,34.3999977h-1v3.2999992
		c0.2999992,0.0999985,0.7000008,0.0999985,1,0.0999985c0.5,0,1-0.0999985,1.2999992-0.5s0.5-0.7999992,0.5-1.2999992
		c0-0.2999992,0-0.5999985-0.2000008-0.9000015C48.0999985,34.7999992,47.9000015,34.5999985,47.5999985,34.5999985z"/>
	<path class="st2" d="M47.7000008,33.0999985C47.9000015,32.6999969,48,32.2999992,48,31.8999977
		c0-0.3999996-0.0999985-0.7999992-0.2999992-1.1000004C47.4000015,30.4999981,47,30.3999977,46.6000023,30.4999981h-0.4000015
		h-0.4000015V33.5c0.0999985,0,0.5,0,0.9000015,0C47.0999985,33.5,47.4000015,33.4000015,47.7000008,33.0999985z"/>
</g>
</svg>
