<?xml version="1.0" encoding="utf-8"?>
<!-- Generator: Adobe Illustrator 22.0.1, SVG Export Plug-In . SVG Version: 6.00 Build 0)  -->
<svg version="1.1" id="Layer_1" xmlns="http://www.w3.org/2000/svg" xmlns:xlink="http://www.w3.org/1999/xlink" x="0px" y="0px"
	 viewBox="0 0 64 64" style="enable-background:new 0 0 64 64;" xml:space="preserve">
<style type="text/css">
	.st0{fill:#112961;}
	.st1{fill:#0086EA;}
	.st2{fill:#E01305;}
</style>
<title>static_appendix-a</title>
<path class="st0" d="M46.4000015,21.2999992v-8.3999996C46.4000015,12.3999996,46,12,45.5,12h-2.5999985v-1.6999998
	c0-0.5-0.4000015-0.8999996-0.9000015-0.8999996l0,0h-2.5999985V7.6999998c0-0.5-0.4000015-0.9000001-0.9000015-0.9000001
	H16.8999996c-0.2000008-1.5999999-1.6000004-2.7000003-3.1000004-2.5c-1.3000002,0.0999999-2.3999996,1.2000003-2.5,2.5h-4
	c-0.5,0-0.9000001,0.4000001-0.9000001,0.9000001V52c0,0.5,0.4000001,0.9000015,0.9000001,0.9000015H9V55.5
	c0,0.5,0.3999996,0.9000015,0.8999996,0.9000015h1.6999998V59c0,0.5,0.3999996,0.9000015,0.8999996,0.9000015h33
	C46,59.9000015,46.4000015,59.5,46.4000015,59V47.7999992c-0.5999985,0-1.2000008-0.0999985-1.7000008-0.2000008v10.5H13.3000002
	v-1.7000008H42c0.5,0,0.9000015-0.4000015,0.9000015-0.9000015v-8.2999992
	c-0.5999985-0.2000008-1.2000008-0.4000015-1.7000008-0.5999985v8h-30.5v-1.7999992H38.5
	c0.5,0,0.9000015-0.4000015,0.9000015-0.9000015v-6.2999992c-0.5999985-0.4000015-1.2000008-0.9000015-1.7000008-1.2999992
	v6.7999992H8.1000004v-42.5h3.1999998v6.3000002C11.1999998,16.5,12.4000006,17.8000011,14,17.9000015
	s2.8999996-1.1000004,3-2.6999998c0-0.1000004,0-0.1999998,0-0.3000002v-3.8999996c0-0.5-0.3999996-0.8999996-0.8999996-0.8999996
	s-0.8999996,0.3999996-0.8999996,0.8999996v3.8999996c0.1000004,0.6000004-0.3999996,1.1000004-1,1.2000008
	s-1.1000004-0.3999996-1.1999998-1c0-0.1000004,0-0.1000004,0-0.1999998V8.6000004h24.7000008v16.2000008
	c0.5-0.5,1.0999985-0.8999996,1.7000008-1.3999996V11.1999998h1.7000008V22.5
	c0.5999985-0.2000008,1.0999985-0.3999996,1.7000008-0.6000004v-8.1000004h1.7000008V21.5
	C45.2000008,21.3999996,45.7999992,21.2999992,46.4000015,21.2999992z M13,6.8000002
	c0.1000004-0.5999999,0.6999998-1,1.3000002-0.8000002C14.6999998,6.0999999,15,6.4000001,15.1000004,6.8000002H13z"/>
<path class="st1" d="M29,23.2999992H16.7999992c-0.5,0-0.8999996,0.3999996-0.8999996,0.8999996
	s0.3999996,0.8999996,0.8999996,0.8999996l0,0H29c0.5,0,0.8999996-0.3999996,0.8999996-0.8999996
	C29.8999996,23.7000008,29.5,23.2999992,29,23.2999992L29,23.2999992z"/>
<path class="st1" d="M29.8999996,27.7000008c0-0.5-0.3999996-0.8999996-0.8999996-0.8999996l0,0H16.7999992
	c-0.5,0-0.8999996,0.3999996-0.8999996,0.8999996s0.3999996,0.8999996,0.8999996,0.8999996H29
	C29.5,28.6000004,29.8999996,28.2000008,29.8999996,27.7000008z"/>
<path class="st1" d="M20.2999992,30.2999992c-0.5,0-0.8999996,0.3999996-0.8999996,0.8999996
	s0.3999996,0.8999996,0.8999996,0.8999996l0,0H25.5c0.5,0,0.8999996-0.3999996,0.8999996-0.8999996S26,30.2999992,25.5,30.2999992
	H20.2999992z"/>
<polygon class="st2" points="46.2000008,30.7999992 46.0999985,31.6000004 45.0999985,35.2000008 47.5,35.2000008 
	46.4000015,31.6000004 "/>
<path class="st2" d="M46.5999985,23.1000004c-6.2000008,0-11.2000008,5-11.2000008,11.1999989S40.3999977,45.5,46.5999985,45.5
	s11.2000008-5,11.2000008-11.2000008C57.7999992,28.2000008,52.7999992,23.1000004,46.5999985,23.1000004L46.5999985,23.1000004z
	 M51,38.4000015h-3.7000008v-0.7999992l0.7999992-0.2000008L47.7999992,36h-2.9000015l-0.4000015,1.5l0.9000015,0.0999985v0.7999992
	h-3.2000008v-0.7999992l0.7000008-0.2000008l2.7000008-8h2.0999985l2.7000008,8l0.7000008,0.2000008L51,38.4000015z"/>
</svg>
