<?xml version="1.0" encoding="utf-8"?>
<!-- Generator: Adobe Illustrator 22.0.1, SVG Export Plug-In . SVG Version: 6.00 Build 0)  -->
<svg version="1.1" id="Layer_1" xmlns="http://www.w3.org/2000/svg" xmlns:xlink="http://www.w3.org/1999/xlink" x="0px" y="0px"
	 viewBox="0 0 64 64" style="enable-background:new 0 0 64 64;" xml:space="preserve">
<style type="text/css">
	.st0{fill:#113961;}
	.st1{fill:#0086EA;}
	.st2{fill:#E01305;}
</style>
<title>static_guildline-range</title>
<path class="st0" d="M30.7000008,23H9.8999996V12.3999996h26.7999973v5.1999989c0.5-0.2999992,1-0.6000004,1.5999985-0.8999996
	v-5.1000004c0-0.3999996-0.2999992-0.8000002-0.7999992-0.8000002H9.1000004c-0.3999996,0-0.8000002,0.3000002-0.8000002,0.8000002
	v12.1000004c0,0.3999996,0.3999996,0.7999992,0.8000002,0.7999992h20.7999992C30.1000004,24,30.3999996,23.5,30.7000008,23z"/>
<path class="st1" d="M13.8999996,30.7999992v-3C13.8999996,27.3999996,13.5,27,13.0999994,27h-4
	c-0.3999996,0-0.8000002,0.3999996-0.8000002,0.7999992v3c0,0.3999996,0.3000002,0.7999992,0.8000002,0.7999992l0,0h4
	C13.6000004,31.6000004,13.8999996,31.2999992,13.8999996,30.7999992L13.8999996,30.7999992z M12.3000002,30.1000004H9.8999996v-1.5
	h2.5v1.5H12.3000002z"/>
<path class="st1" d="M22,27.7999992L22,27.7999992C22,27.3999996,21.6000004,27,21.2000008,27h-4
	c-0.3999996,0-0.7999992,0.3999996-0.7999992,0.7999992v3c0,0.3999996,0.2999992,0.7999992,0.7999992,0.7999992l0,0h4
	C21.6000004,31.5999985,22,31.2999992,22,30.7999992l0,0V27.7999992z M20.3999996,30.1000004H18v-1.5h2.5L20.3999996,30.1000004z"/>
<path class="st1" d="M28.2999992,28.6000004c0.1000004-0.5,0.2999992-1,0.5-1.6000004h-3.5
	C24.8999996,27,24.5,27.3999996,24.5,27.7999992v3c0,0.3999996,0.2999992,0.7999992,0.7999992,0.7999992l0,0h2.6000004
	c0-0.5,0.1000004-1,0.2000008-1.6000004h-2v-1.3999996C26.1000004,28.5999985,28.2999992,28.5999985,28.2999992,28.6000004z"/>
<path class="st1" d="M13.8999996,37.9000015v-3c0-0.4000015-0.3000002-0.7999992-0.8000002-0.7999992h-4
	c-0.3999996,0-0.8000002,0.2999992-0.8000002,0.7999992v3c0,0.4000015,0.3000002,0.7999992,0.8000002,0.7999992h4
	C13.6000004,38.7000008,13.8999996,38.2999992,13.8999996,37.9000015z M12.3000002,37.2000008H9.8999996v-1.5h2.5v1.5H12.3000002z"
	/>
<path class="st1" d="M22,34.9000015L22,34.9000015c0-0.4000015-0.3999996-0.7999992-0.7999992-0.7999992h-4
	c-0.3999996,0-0.7999992,0.2999992-0.7999992,0.7999992v3c0,0.4000015,0.2999992,0.7999992,0.7999992,0.7999992h4
	C21.6000004,38.7000008,22,38.4000015,22,37.9000015V34.9000015z M20.3999996,37.0999985H18v-1.5h2.5L20.3999996,37.0999985z"/>
<path class="st1" d="M24.5,34.9000015v3c0,0.4000015,0.2999992,0.7999992,0.7999992,0.7999992h3.7999992
	c-0.2000008-0.5999985-0.3999996-1.0999985-0.5-1.7000008v0.2000008H26v-1.5h2.1000004
	c-0.1000004-0.5-0.1000004-1-0.2000008-1.5999985h-2.7000008C24.7999992,34.0999985,24.5,34.5,24.5,34.9000015L24.5,34.9000015z"/>
<path class="st1" d="M13.8999996,45v-3c0-0.4000015-0.3000002-0.7999992-0.8000002-0.7999992h-4
	c-0.3999996,0-0.8000002,0.2999992-0.8000002,0.7000008l0,0v3c0,0.4000015,0.3000002,0.7999992,0.8000002,0.7999992h4
	C13.5,45.7999992,13.8999996,45.4000015,13.8999996,45L13.8999996,45z M12.3000002,44.2000008H9.8999996v-1.5h2.5v1.5H12.3000002z"
	/>
<path class="st1" d="M22,42L22,42c0-0.4000015-0.3999996-0.7999992-0.7999992-0.7999992h-4
	C16.8000011,41.2000008,16.4000015,41.5,16.4000015,42v3c0,0.4000015,0.2999992,0.7999992,0.7999992,0.7999992h4
	C21.6000004,45.7999992,22,45.5,22,45V42z M20.3999996,44.2000008H18v-1.5h2.5L20.3999996,44.2000008z"/>
<path class="st1" d="M13.1000004,48.2999992h-4c-0.3999996,0-0.8000002,0.4000015-0.8000002,0.7999992v3
	c0,0.4000015,0.3000002,0.7999992,0.8000002,0.7999992h4c0.3999996,0,0.8000002-0.4000015,0.8000002-0.7999992v-3
	C13.8999996,48.5999985,13.6000004,48.2999992,13.1000004,48.2999992z M12.3999996,51.2999992h-2.5v-1.4000015h2.5V51.2999992z"/>
<path class="st1" d="M21.2000008,48.2999992h-4c-0.3999996,0-0.7999992,0.2999992-0.7999992,0.7999992v3
	c0,0.4000015,0.2999992,0.7999992,0.7999992,0.7999992h4C21.6000004,52.8999977,22,52.5999985,22,52.1999969v-3
	C22,48.7000008,21.7000008,48.2999992,21.2000008,48.2999992L21.2000008,48.2999992z M20.3999996,51.2999992H18v-1.4000015h2.5
	L20.3999996,51.2999992z"/>
<path class="st1" d="M24.5,42v3c0,0.4000015,0.2999992,0.7999992,0.7999992,0.7999992H34.5
	c-0.5999985-0.5-1.2000008-1-1.7999992-1.5999985H26v-1.4000015h5.3999996c-0.3999996-0.5-0.7000008-1-1.1000004-1.5999985
	h-5.1000004C24.7999992,41.2000008,24.5,41.5999985,24.5,42L24.5,42z"/>
<path class="st1" d="M25.2999992,52.9000015h12.1000023c0.4000015,0,0.7999992-0.2999992,0.7999992-0.7999992v-3
	c0-0.4000015-0.2999992-0.7999992-0.7999992-0.7999992H25.2999992c-0.3999996,0-0.7999992,0.4000015-0.7999992,0.7999992v3
	C24.5,52.5,24.7999992,52.9000015,25.2999992,52.9000015z M26.1000004,49.9000015h10.6000004v1.5H26L26.1000004,49.9000015z"/>
<path class="st0" d="M42.2000008,15.6000004v-4c0-1.3000002-0.5-2.5-1.4000015-3.3999996l-0.0999985-0.1000004
	c-0.9000015-0.9000001-2.0999985-1.4000001-3.4000015-1.4000001H9.1000004c-1.3000002,0-2.5,0.5-3.4000001,1.4000001l0,0
	C4.8000002,9,4.3000002,10.2000008,4.3000002,11.5V52c0,1.2999992,0.5,2.5,1.4000001,3.4000015l0,0
	c0.9000001,0.9000015,2.0999999,1.4000015,3.4000001,1.4000015h28.3000011c2.7000008,0,4.7999992-2.2000008,4.7999992-4.7999992
	v-2.9000015c-0.5-0.0999985-1-0.2000008-1.5999985-0.2999992v3.2000008c0,1.7999992-1.5,3.2000008-3.2999992,3.2999992H9.1000004
	c-0.8999996,0-1.6999998-0.4000015-2.3000002-1l0,0c-0.5999999-0.5999985-1-1.4000015-1-2.2999992V11.6000004
	c0-0.8999996,0.4000001-1.6999998,1-2.3000002l0,0c0.5999999-0.6000004,1.3999996-1,2.3000002-1h28.3000011
	c0.7999992,0,1.7000008,0.3000002,2.2999992,0.8999996l0,0c0.5999985,0.6000004,1,1.3999996,1,2.3000002v4.3000002
	C41.2000008,15.8000002,41.7000008,15.6999998,42.2000008,15.6000004z"/>
<path class="st2" d="M45.0999985,17.6000004c-8.2000008,0-14.7999992,6.6000004-14.7999992,14.8000011
	S37,47.2000008,45.0999985,47.2000008s14.7999992-6.5999985,14.7999992-14.7999992l0,0
	C59.9000015,24.2000008,53.2999992,17.6000004,45.0999985,17.6000004z M43.7999992,32.0999985V41
	c0,0.2999992-0.2999992,0.5999985-0.7000008,0.5c-0.2999992,0-0.5-0.2000008-0.5-0.5v-7.7000008H39v2.4000015l-3.5999985-3
	l3.5999985-3V32h3.5999985v-7.7000008c0-0.2999992,0.2000008-0.6000004,0.5-0.7000008
	c0.2999992,0,0.5999985,0.2000008,0.7000008,0.5c0,0.1000004,0,0.1000004,0,0.2000008V32.0999985z M51,35.5999985v-2.4000015
	h-3.5999985V41c0,0.2999992-0.2999992,0.5999985-0.7000008,0.5c-0.2999992,0-0.5-0.2000008-0.5-0.5V24.2999992
	c0-0.2999992,0.2000008-0.6000004,0.5-0.7000008c0.2999992,0,0.5999985,0.2000008,0.7000008,0.5
	c0,0.1000004,0,0.1000004,0,0.2000008V32H51v-2.3999996l3.5999985,2.9999981L51,35.5999985z"/>
</svg>
