<?xml version="1.0" encoding="utf-8"?>
<!-- Generator: Adobe Illustrator 22.0.1, SVG Export Plug-In . SVG Version: 6.00 Build 0)  -->
<svg version="1.0" id="Layer_1" xmlns="http://www.w3.org/2000/svg" xmlns:xlink="http://www.w3.org/1999/xlink" x="0px" y="0px"
	 viewBox="0 0 66.59375 8.09375" style="enable-background:new 0 0 66.59375 8.09375;" xml:space="preserve">
<style type="text/css">
	.st0{fill:#DD1F26;}
	.st1{fill:#FFFFFF;}
</style>
<g>
	<g id="Layer_1_2_">
		<g>
			<g>
				<g>
					<rect x="1.2959535" y="2.7788992" class="st0" width="63.5359077" height="0.1803594"/>
				</g>
			</g>
		</g>
	</g>
	<g>
		<path class="st1" d="M1.4144795,0.4105214L1.2233073,0.3764993V0.2215094h0.7425473v0.1549899L1.7395802,0.4105214v1.0023038
			c0,0.2408553,0.0432028,0.4142064,0.1301483,0.5195131s0.2100734,0.1576899,0.3688434,0.1576899
			c0.15715,0,0.2759576-0.0572436,0.3569627-0.1722709c0.0804653-0.1150273,0.1209679-0.2781177,0.1209679-0.4903512V0.4105214
			l-0.219794-0.0340222V0.2215094h0.6377807v0.1549899L2.9373765,0.4105214v1.0050039
			c0,0.1863118-0.031322,0.3418418-0.094506,0.4660497c-0.063184,0.124748-0.1495895,0.2170939-0.2597566,0.2770376
			c-0.109627,0.0599439-0.2365351,0.0896456-0.3801842,0.0896456c-0.1846919,0-0.3348213-0.0302417-0.4498488-0.0907257
			c-0.1155673-0.061024-0.2008927-0.15499-0.2559762-0.2813579C1.4420213,1.7492667,1.4144795,1.5850962,1.4144795,1.3836634
			V0.4105214z"/>
		<path class="st1" d="M3.6415813,2.0716672V0.403501l-0.219254-0.0345622V0.2215094h0.5254536L4.843698,1.5300127
			l0.1409488,0.2635368V0.4024209L4.7464914,0.3689388V0.2215094h0.6599221v0.1474294L5.1855397,0.403501v1.8436773h-0.218174
			l-0.9169784-1.334965L3.842474,0.5503904v1.5196568l0.2543564,0.031862v0.1452692H3.4223273V2.1019092L3.6415813,2.0716672z"/>
		<path class="st1" d="M5.9788499,2.0700471V0.403501L5.7352943,0.3689388V0.2215094h0.8014112v0.1474294L6.2931499,0.4024209
			v1.6676261l0.2473359,0.0361824v0.1409488H5.7352943V2.1019092L5.9788499,2.0700471z"/>
		<path class="st1" d="M7.5800519,2.0700471V0.3862199h-0.443368L7.0367775,0.9494758H6.8439851l0.046443-0.7279663h1.6849074
			l0.0426626,0.7279663H8.427906L8.3269196,0.3862199H7.9008327v1.6838272l0.3764033,0.031862v0.1452692H7.23281V2.1019092
			L7.5800519,2.0700471z"/>
		<path class="st1" d="M9.1456118,2.0700471V0.4067412L8.9258175,0.3700189V0.2215094h1.3868084l0.0372629,0.4223069h-0.171731
			l-0.0826254-0.2613766H9.458292v0.7387671h0.4325676l0.0399618-0.2251944h0.171731v0.6313002h-0.171731L9.8919392,1.2902374
			H9.458292V2.067347h0.7317457l0.1506701-0.3483223l0.1701107,0.0502232l-0.0783052,0.4779303H8.9220371V2.1019092
			L9.1456118,2.0700471z"/>
		<path class="st1" d="M11.0422125,2.0608666V0.4202421l-0.2106133-0.0340222V0.2215094h0.3553429
			c0.044282,0,0.0912657,0,0.1404085,0c0.0496836,0,0.0815449,0,0.0966663,0c0.1047668,0,0.1852312,0,0.2424755,0
			c0.3396816,0,0.5924177,0.0831653,0.7576675,0.2489558c0.1657906,0.1663306,0.2484159,0.3996255,0.2484159,0.7004246
			c0,0.2116935-0.0421228,0.3985454-0.1263676,0.5610957c-0.0842457,0.1625503-0.2025127,0.2889185-0.3548031,0.3796442
			c-0.1522894,0.0901859-0.327261,0.1355486-0.5249128,0.1355486c-0.0453634,0-0.1215076,0-0.2278948,0
			c-0.1101665,0-0.1895523,0-0.2381554,0h-0.3834238V2.0921886L11.0422125,2.0608666z M11.4699202,2.0921886
			c0.0405025,0.0032401,0.085865,0.0043201,0.1366282,0.0043201h0.0610237c0.1312284,0,0.2467957-0.0329421,0.3467026-0.0993663
			c0.099906-0.0658841,0.1782112-0.1641704,0.234375-0.2932386c0.0561628-0.1296083,0.0842447-0.2878383,0.0842447-0.4746902
			c0-0.2835181-0.0610237-0.4979117-0.1836109-0.6426409c-0.1220484-0.1452692-0.3067398-0.2176338-0.5535355-0.2176338
			c-0.0540037,0-0.1209679,0.0064804-0.2008934,0.0183612l-0.0415821,0.0054003v1.681127
			C11.3905344,2.0824678,11.4294167,2.0889482,11.4699202,2.0921886z"/>
		<path class="st1" d="M13.99512,1.6455801h0.1852322l0.0529232,0.3305011
			c0.030242,0.031322,0.0793848,0.0577836,0.1468897,0.0799251c0.0669641,0.0216014,0.1404085,0.0329421,0.2192535,0.0329421
			c0.132309,0,0.2316751-0.0286217,0.2991791-0.0864055c0.0669641-0.0572436,0.1004467-0.1371686,0.1004467-0.2392352
			c0-0.0664243-0.0183611-0.1236678-0.055624-0.1717309c-0.0367222-0.047523-0.0864048-0.0896457-0.1495895-0.126368
			c-0.0631838-0.0361823-0.1495895-0.078305-0.2597561-0.1269081C14.438489,1.2961779,14.352623,1.2502749,14.275938,1.2011318
			c-0.0761442-0.0491432-0.1420288-0.1134073-0.1965723-0.1917123c-0.0550833-0.078845-0.0826254-0.1717309-0.0826254-0.2786577
			c0-0.0988263,0.0270023-0.1863118,0.0810051-0.2640768c0.0540037-0.0772249,0.1312284-0.1377088,0.2316751-0.1809115
			c0.1004467-0.0437428,0.2170935-0.0658842,0.3499422-0.0658842c0.0815449,0,0.1571503,0.0070204,0.2262745,0.0210613
			c0.0691242,0.0135009,0.1409492,0.030782,0.2154732,0.0523833c0.039423,0.0113407,0.0707445,0.0194412,0.0945063,0.0237615
			l-0.0172806,0.4449883h-0.1782112l-0.0610247-0.31376c-0.0172806-0.0183612-0.0523834-0.0345622-0.1063862-0.0496832
			c-0.0545435-0.015121-0.1128674-0.0226814-0.1760511-0.0226814c-0.2392359,0-0.3591232,0.093966-0.3591232,0.282438
			c0,0.0653442,0.0178213,0.1215077,0.0545435,0.1684907c0.0361824,0.046443,0.0847855,0.0880256,0.1447296,0.1236679
			c0.060483,0.0356423,0.1495895,0.0820852,0.2678566,0.1382487c0.1171875,0.0561637,0.2127733,0.1074669,0.2872982,0.1539098
			c0.0745249,0.046983,0.1387892,0.1063868,0.1917124,0.1782113c0.053463,0.0723647,0.0799246,0.15769,0.0799246,0.2559763
			c0,0.095046-0.0275412,0.1863118-0.0820847,0.2743375c-0.0545435,0.0874856-0.1366291,0.1587701-0.2462559,0.2143936
			c-0.109087,0.0550835-0.2424755,0.0826252-0.3985453,0.0826252c-0.0955858,0-0.1830721-0.0086405-0.2619171-0.0259216
			c-0.0793848-0.0172811-0.1609297-0.0394225-0.2462549-0.0669641c-0.0588636-0.0189013-0.0972061-0.0286219-0.1161079-0.030782
			L13.99512,1.6455801z"/>
		<path class="st1" d="M16.3275299,2.0700471V0.3862199H15.884161l-0.0999069,0.5632558h-0.1927919l0.046443-0.7279663h1.6849079
			l0.0426617,0.7279663h-0.1900921l-0.1009865-0.5632558h-0.4260864v1.6838272l0.3764038,0.031862v0.1452692h-1.0444269V2.1019092
			L16.3275299,2.0700471z"/>
		<path class="st1" d="M17.6651936,2.0705872l0.6561432-1.8490777h0.3169994l0.6615429,1.8490777l0.1690292,0.031322v0.1452692
			h-0.7306652V2.1019092l0.2165527-0.031862l-0.1263676-0.3882847h-0.7825108l-0.120966,0.3882847l0.227354,0.031862v0.1452692
			h-0.6545219l-0.0016193-0.1452692L17.6651936,2.0705872z M18.7738838,1.5127317l-0.2845974-0.8608149l-0.0588627-0.220334
			L18.3720989,0.654077l-0.2727165,0.8586547H18.7738838z"/>
		<path class="st1" d="M20.3205433,2.0700471V0.3862199h-0.4433689l-0.099905,0.5632558h-0.1927929l0.046442-0.7279663h1.6849079
			L21.35849,0.9494758h-0.1900921l-0.1009865-0.5632558h-0.4260883v1.6838272l0.3764038,0.031862v0.1452692h-1.044426V2.1019092
			L20.3205433,2.0700471z"/>
		<path class="st1" d="M21.8861027,2.0700471V0.4067412l-0.2197933-0.0367224V0.2215094h1.3868084l0.037262,0.4223069h-0.1717319
			l-0.0826244-0.2613766H22.198782v0.7387671h0.4325676l0.0399628-0.2251944h0.1717319v0.6313002h-0.1717319L22.632431,1.2902374
			H22.198782V2.067347h0.7317467l0.150671-0.3483223l0.1701107,0.0502232l-0.0783062,0.4779303H21.662529V2.1019092
			L21.8861027,2.0700471z"/>
		<path class="st1" d="M23.6093521,1.6455801h0.1852322l0.0529232,0.3305011
			c0.0302429,0.031322,0.0793858,0.0577836,0.1468887,0.0799251c0.0669651,0.0216014,0.1404095,0.0329421,0.2192554,0.0329421
			c0.1323071,0,0.2316742-0.0286217,0.2991791-0.0864055c0.0669632-0.0572436,0.1004467-0.1371686,0.1004467-0.2392352
			c0-0.0664243-0.018362-0.1236678-0.055624-0.1717309c-0.0367222-0.047523-0.0864067-0.0896457-0.1495895-0.126368
			c-0.0631847-0.0361823-0.1495895-0.078305-0.2597561-0.1269081c-0.0955868-0.0421227-0.1814518-0.0880257-0.2581367-0.1371688
			c-0.0761452-0.0491432-0.1420288-0.1134073-0.1965733-0.1917123c-0.0550842-0.078845-0.0826244-0.1717309-0.0826244-0.2786577
			c0-0.0988263,0.0270004-0.1863118,0.0810051-0.2640768c0.0540028-0.0772249,0.1312275-0.1377088,0.2316742-0.1809115
			c0.1004467-0.0437428,0.2170944-0.0658842,0.3499432-0.0658842c0.0815449,0,0.1571484,0.0070204,0.2262726,0.0210613
			c0.0691261,0.0135009,0.1409492,0.030782,0.2154751,0.0523833c0.039423,0.0113407,0.0707436,0.0194412,0.0945053,0.0237615
			l-0.0172806,0.4449883H24.614357l-0.0610237-0.31376c-0.0172825-0.0183612-0.0523834-0.0345622-0.1063881-0.0496832
			c-0.0545425-0.015121-0.1128674-0.0226814-0.1760502-0.0226814c-0.2392349,0-0.3591232,0.093966-0.3591232,0.282438
			c0,0.0653442,0.0178204,0.1215077,0.0545444,0.1684907c0.0361805,0.046443,0.0847855,0.0880256,0.1447277,0.1236679
			c0.0604839,0.0356423,0.1495895,0.0820852,0.2678585,0.1382487c0.1171875,0.0561637,0.2127724,0.1074669,0.2872982,0.1539098
			c0.0745239,0.046983,0.1387882,0.1063868,0.1917114,0.1782113c0.053463,0.0723647,0.0799255,0.15769,0.0799255,0.2559763
			c0,0.095046-0.0275421,0.1863118-0.0820866,0.2743375c-0.0545425,0.0874856-0.1366272,0.1587701-0.246254,0.2143936
			c-0.109087,0.0550835-0.2424755,0.0826252-0.3985462,0.0826252c-0.0955868,0-0.1830711-0.0086405-0.2619171-0.0259216
			c-0.0793839-0.0172811-0.1609306-0.0394225-0.2462559-0.0669641c-0.0588627-0.0189013-0.0972061-0.0286219-0.116106-0.030782
			L23.6093521,1.6455801z"/>
		<path class="st1" d="M26.2755032,1.6455801h0.1857719l0.0518417,0.3305011
			c0.0302429,0.031322,0.0799255,0.0577836,0.1468906,0.0799251c0.0669632,0.0216014,0.1404076,0.0329421,0.2203331,0.0329421
			c0.1317692,0,0.2311344-0.0286217,0.2980995-0.0864055c0.0669632-0.0572436,0.1004467-0.1371686,0.1004467-0.2392352
			c0-0.0664243-0.018362-0.1236678-0.0550842-0.1717309c-0.0367222-0.047523-0.0864048-0.0896457-0.1490498-0.126368
			c-0.0637245-0.0361823-0.1501293-0.078305-0.2602959-0.1269081c-0.0961266-0.0421227-0.1814518-0.0880257-0.2581367-0.1371688
			c-0.0756054-0.0491432-0.1425686-0.1134073-0.1965733-0.1917123c-0.0550823-0.078845-0.0820847-0.1717309-0.0820847-0.2786577
			c0-0.0988263,0.0259228-0.1863118,0.0799255-0.2640768c0.0540028-0.0772249,0.1317673-0.1377088,0.232214-0.1809115
			c0.1004467-0.0437428,0.2170944-0.0658842,0.3499432-0.0658842c0.0810051,0,0.1566105,0.0070204,0.2257347,0.0210613
			c0.0702038,0.0135009,0.141489,0.030782,0.216013,0.0523833c0.0388832,0.0113407,0.0712852,0.0194412,0.095047,0.0237615
			l-0.0172825,0.4449883h-0.1782112l-0.0615635-0.31376c-0.0172806-0.0183612-0.0518436-0.0345622-0.1058464-0.0496832
			c-0.0550842-0.015121-0.1134071-0.0226814-0.1771317-0.0226814c-0.2386951,0-0.3585835,0.093966-0.3585835,0.282438
			c0,0.0653442,0.0172825,0.1215077,0.0540047,0.1684907c0.0367222,0.046443,0.0853252,0.0880256,0.1447296,0.1236679
			c0.060482,0.0356423,0.1501293,0.0820852,0.2678566,0.1382487c0.1177273,0.0561637,0.2138538,0.1074669,0.2883778,0.1539098
			c0.0745239,0.046983,0.1382484,0.1063868,0.1911716,0.1782113c0.0529232,0.0723647,0.0799255,0.15769,0.0799255,0.2559763
			c0,0.095046-0.0270023,0.1863118-0.0820847,0.2743375c-0.0540047,0.0874856-0.1360893,0.1587701-0.2462559,0.2143936
			c-0.109087,0.0550835-0.2419357,0.0826252-0.3985462,0.0826252c-0.0961246,0-0.1825314-0.0086405-0.2624569-0.0259216
			c-0.0788441-0.0172811-0.1598492-0.0394225-0.246254-0.0669641c-0.0583248-0.0189013-0.0972061-0.0286219-0.1155682-0.030782
			L26.2755032,1.6455801z"/>
		<path class="st1" d="M28.1807442,2.0700471V0.4067412l-0.2192535-0.0367224V0.2215094h1.3868065l0.0378036,0.4223069h-0.1717319
			l-0.0831642-0.2613766h-0.6372414v0.7387671h0.4320278l0.0399628-0.2251944h0.17173v0.6313002h-0.17173l-0.0378017-0.2370751
			h-0.4341888V2.067347h0.7322865l0.1501293-0.3483223l0.1706524,0.0502232l-0.078846,0.4779303h-1.5110168V2.1019092
			L28.1807442,2.0700471z"/>
		<path class="st1" d="M30.0762634,2.0716672V0.403501l-0.2192535-0.0345622V0.2215094h0.5259933l0.8953781,1.3085033
			l0.141489,0.2635368V0.4024209l-0.2386951-0.0334821V0.2215094h0.6599216v0.1474294l-0.220335,0.0345622v1.8436773h-0.218174
			l-0.9180584-1.334965l-0.2073727-0.361823v1.5196568l0.2548962,0.031862v0.1452692h-0.6750431V2.1019092L30.0762634,2.0716672z"/>
		<path class="st1" d="M32.8001976,2.0700471V0.3862199h-0.4428291l-0.1004448,0.5632558H32.063591l0.0475235-0.7279663h1.684906
			l0.0421219,0.7279663h-0.1900902L33.546524,0.3862199h-0.4255447v1.6838272l0.3769417,0.031862v0.1452692h-1.0455055V2.1019092
			L32.8001976,2.0700471z"/>
		<path class="st1" d="M34.3652191,2.0700471V0.4067412l-0.2192574-0.0367224V0.2215094h1.3868103l0.0378036,0.4223069h-0.1717339
			l-0.0831642-0.2613766h-0.6372414v0.7387671h0.4320297l0.0399628-0.2251944h0.17173v0.6313002h-0.17173l-0.0378036-0.2370751
			h-0.4341888V2.067347h0.7322884l0.1501274-0.3483223l0.1706505,0.0502232l-0.0788422,0.4779303h-1.5110168V2.1019092
			L34.3652191,2.0700471z"/>
		<path class="st1" d="M36.2607384,2.0716672V0.403501l-0.2192535-0.0345622V0.2215094h0.5259933l0.8953781,1.3085033
			l0.1414871,0.2635368V0.4024209l-0.2386932-0.0334821V0.2215094h0.6599197v0.1474294L37.8052368,0.403501v1.8436773h-0.218174
			l-0.9180603-1.334965l-0.2073708-0.361823v1.5196568l0.2548943,0.031862v0.1452692h-0.6750412V2.1019092L36.2607384,2.0716672z"/>
		<path class="st1" d="M38.4230347,0.6929594c0.0874863-0.1522897,0.2052155-0.2694771,0.3553429-0.3504823
			c0.1501312-0.0815452,0.3175392-0.1225878,0.5033112-0.1225878c0.0853271,0,0.1674118,0.0064804,0.2462578,0.0189012
			c0.0799255,0.0124208,0.1695709,0.0286218,0.2700157,0.0491431l0.0712852,0.0145809l-0.0248413,0.486031h-0.1987343
			l-0.0745239-0.329961c-0.0183601-0.0237615-0.0561638-0.0432028-0.1123276-0.0572436
			c-0.0572433-0.0145809-0.1317673-0.0216014-0.2235718-0.0216014c-0.1144867,0-0.2149353,0.031322-0.3024216,0.094506
			c-0.0864029,0.063184-0.155529,0.15607-0.2041321,0.2786578c-0.0496826,0.1231278-0.0745239,0.2710972-0.0745239,0.4444483
			c0,0.1603901,0.0226822,0.3083596,0.0658836,0.4433682c0.044281,0.1350086,0.1123276,0.2435555,0.2041321,0.3256408
			c0.0918083,0.0826252,0.206295,0.1236677,0.3434639,0.1236677c0.1436462,0,0.246254-0.031862,0.3078194-0.0955859
			l0.1155663-0.2716373l0.1890106,0.0243015l-0.0583229,0.3985453c-0.0237617,0.0016203-0.0475235,0.0054004-0.0691223,0.0108008
			c-0.0226822,0.0059404-0.050766,0.014581-0.0864067,0.0270016c-0.060482,0.0205214-0.1177292,0.0367224-0.1728096,0.048063
			c-0.0550842,0.0113409-0.1231308,0.016741-0.2041359,0.016741c-0.2106133,0-0.3909836-0.0405025-0.5400314-0.1215076
			c-0.1490517-0.0804651-0.2624588-0.1976526-0.3391418-0.3499422c-0.0777664-0.1522897-0.1166496-0.3353614-0.1166496-0.5481349
			C38.2934265,1.0240005,38.3366318,0.8457892,38.4230347,0.6929594z"/>
		<path class="st1" d="M40.4902878,2.0700471V0.403501l-0.2440948-0.0345622V0.2215094h0.8014107v0.1474294l-0.2440948,0.0334821
			v1.6676261l0.2484131,0.0361824v0.1409488h-0.8057289V2.1019092L40.4902878,2.0700471z"/>
		<path class="st1" d="M41.6621628,2.0716672V0.403501l-0.2192535-0.0345622V0.2215094h0.5259933l0.8953743,1.3085033
			l0.1414909,0.2635368V0.4024209l-0.2386971-0.0334821V0.2215094h0.6599236v0.1474294L43.2066612,0.403501v1.8436773h-0.218174
			l-0.9180603-1.334965l-0.2073708-0.361823v1.5196568l0.2548943,0.031862v0.1452692h-0.6750412V2.1019092L41.6621628,2.0716672z"/>
		<path class="st1" d="M43.8590202,0.7043002c0.0907288-0.15661,0.2138557-0.2764976,0.3715439-0.3596629
			c0.1566124-0.0831653,0.333744-0.1247479,0.5292358-0.1247479c0.123127,0,0.2365341,0.0086405,0.3434601,0.0259216
			c0.1058464,0.0172811,0.2041359,0.0372624,0.2959404,0.0594038L45.3722,0.7545233h-0.2052155l-0.0712852-0.2970189
			c-0.0226784-0.0210613-0.0615616-0.0399625-0.1188049-0.0567036s-0.1360893-0.0248416-0.2386971-0.0248416
			c-0.1285286,0-0.2430153,0.030782-0.341301,0.0923459S44.2208443,0.6216749,44.16576,0.7437227
			c-0.0550804,0.1220478-0.0831642,0.2705572-0.0831642,0.4466084c0,0.1609303,0.0237617,0.3099798,0.0702057,0.4460684
			s0.1177254,0.2457156,0.2138519,0.3288809s0.2149353,0.1247479,0.3542633,0.1247479
			c0.0799255,0,0.155529-0.0091805,0.2257347-0.0286217c0.0702057-0.0189013,0.1242065-0.046983,0.1620102-0.0842454V1.3939241
			l-0.3261795-0.030782v-0.171191h0.7949295v0.171191l-0.155529,0.0280818v0.7187858
			c-0.0237617,0-0.0496826,0.0037801-0.0799255,0.0113406c-0.0291634,0.0075605-0.0658836,0.0183613-0.111248,0.0324023
			c-0.0939674,0.0297017-0.1814499,0.0523832-0.2635384,0.0696642c-0.0810051,0.016741-0.17173,0.0248415-0.2721748,0.0248415
			c-0.1998138,0-0.3726234-0.0421226-0.5195122-0.1274481c-0.1458092-0.0853252-0.2581367-0.2030529-0.3359032-0.3526424
			c-0.0777664-0.1501296-0.1166458-0.3191602-0.1166458-0.5081723C43.7229347,1.046682,43.7682953,0.8609101,43.8590202,0.7043002z"
			/>
		<path class="st1" d="M46.8994141,0.6929594c0.0874863-0.1522897,0.2052155-0.2694771,0.3553429-0.3504823
			c0.1501312-0.0815452,0.317543-0.1225878,0.503315-0.1225878c0.0853233,0,0.167408,0.0064804,0.246254,0.0189012
			c0.0799255,0.0124208,0.1695709,0.0286218,0.2700157,0.0491431l0.0712852,0.0145809l-0.0248413,0.486031h-0.1987305
			l-0.0745277-0.329961c-0.0183601-0.0237615-0.0561638-0.0432028-0.1123276-0.0572436
			c-0.0572433-0.0145809-0.1317673-0.0216014-0.2235718-0.0216014c-0.1144867,0-0.2149353,0.031322-0.3024216,0.094506
			c-0.0864029,0.063184-0.155529,0.15607-0.2041321,0.2786578c-0.0496826,0.1231278-0.0745239,0.2710972-0.0745239,0.4444483
			c0,0.1603901,0.0226822,0.3083596,0.0658836,0.4433682c0.0442848,0.1350086,0.1123276,0.2435555,0.2041321,0.3256408
			c0.0918083,0.0826252,0.206295,0.1236677,0.3434639,0.1236677c0.1436501,0,0.246254-0.031862,0.3078194-0.0955859
			l0.1155663-0.2716373l0.1890144,0.0243015l-0.0583267,0.3985453c-0.0237617,0.0016203-0.0475235,0.0054004-0.0691223,0.0108008
			c-0.0226822,0.0059404-0.050766,0.014581-0.0864067,0.0270016c-0.060482,0.0205214-0.1177254,0.0367224-0.1728096,0.048063
			c-0.0550842,0.0113409-0.1231308,0.016741-0.2041359,0.016741c-0.2106133,0-0.3909836-0.0405025-0.5400314-0.1215076
			c-0.1490517-0.0804651-0.2624588-0.1976526-0.3391418-0.3499422c-0.0777664-0.1522897-0.1166496-0.3353614-0.1166496-0.5481349
			C46.7698059,1.0240005,46.8130112,0.8457892,46.8994141,0.6929594z"/>
		<path class="st1" d="M48.7808952,0.7059203c0.0799255-0.1549899,0.190094-0.2748775,0.329422-0.3591229
			c0.1404076-0.0847854,0.2970161-0.1269081,0.4719887-0.1269081c0.190094,0,0.3499413,0.0405026,0.4806328,0.1215077
			c0.1306877,0.0810052,0.2278938,0.1954924,0.2937775,0.3434619c0.0648041,0.1479694,0.0972061,0.3229406,0.0972061,0.5249134
			c0,0.2068331-0.0399628,0.3888247-0.1198883,0.5459747c-0.0810051,0.15715-0.1911736,0.2786577-0.3326607,0.3639832
			c-0.1414909,0.0858655-0.3013382,0.1285281-0.4784698,0.1285281c-0.1846924,0-0.341301-0.0415826-0.4709091-0.1252878
			c-0.1296082-0.0831654-0.2268181-0.2008929-0.2916222-0.3515625c-0.0658836-0.1512096-0.0993652-0.3267208-0.0993652-0.5265335
			C48.6610069,1.0402015,48.7009697,0.8609101,48.7808952,0.7059203z M49.0725136,1.6931031
			c0.0432014,0.1274482,0.106926,0.2257345,0.1890106,0.2948588c0.083168,0.0691243,0.1814537,0.1036867,0.29702,0.1036867
			c0.1123276,0,0.2095337-0.0329423,0.2916183-0.0982864c0.0820847-0.0658841,0.1458092-0.1641704,0.1911736-0.2953987
			c0.0453606-0.1317685,0.0680428-0.2937788,0.0680428-0.4871111c0-0.1722709-0.0215988-0.3213204-0.0648041-0.4466084
			c-0.0432014-0.125288-0.1058464-0.2214141-0.1879311-0.2883783c-0.0820847-0.0664243-0.1814499-0.0999064-0.29702-0.0999064
			c-0.1134071,0-0.2116928,0.031322-0.2937775,0.0950461c-0.0831642,0.063184-0.1468887,0.1593102-0.1911736,0.2889184
			c-0.0453606,0.1290683-0.0669632,0.2905385-0.0669632,0.4833307C49.0077095,1.4155254,49.0293121,1.565655,49.0725136,1.6931031z"
			/>
		<path class="st1" d="M50.8967514,2.0716672l0.1987305-1.6692462l-0.2840576-0.0334821V0.2215094h0.7268867l0.4179878,1.2204777
			l0.0691223,0.3061994l0.0594063-0.3061994l0.3683014-1.2204777h0.7268867v0.1474294L52.8851547,0.403501l0.2581367,1.6665461
			l0.2376175,0.031862v0.1452692h-0.7906113V2.1019092l0.2354546-0.030242l-0.1674118-1.2085969l-0.0583229-0.5313938
			L52.508213,0.6967397l-0.4341888,1.459713h-0.17173l-0.480629-1.3106635l-0.1468925-0.5124927l-0.0432014,0.5281537
			l-0.1080055,1.2085969l0.262455,0.031862v0.1452692h-0.7268867V2.1019092L50.8967514,2.0716672z"/>
		<path class="st1" d="M53.7340889,2.0716672l0.1987343-1.6692462l-0.2840576-0.0334821V0.2215094h0.7268867l0.417984,1.2204777
			l0.0691261,0.3061994l0.0594025-0.3061994l0.3683052-1.2204777h0.7268867v0.1474294L55.722496,0.403501l0.2581367,1.6665461
			l0.2376175,0.031862v0.1452692H55.427639V2.1019092l0.2354546-0.030242l-0.1674118-1.2085969l-0.0583229-0.5313938
			l-0.0918045,0.3650632l-0.4341888,1.459713h-0.17173l-0.4806328-1.3106635L54.112114,0.3332965l-0.0432014,0.5281537
			L53.960907,2.0700471l0.262455,0.031862v0.1452692h-0.7268867V2.1019092L53.7340889,2.0716672z"/>
		<path class="st1" d="M56.7258797,2.0700471V0.403501l-0.2440948-0.0345622V0.2215094h0.8014107v0.1474294l-0.2440948,0.0334821
			v1.6676261l0.2484169,0.0361824v0.1409488h-0.8057327V2.1019092L56.7258797,2.0700471z"/>
		<path class="st1" d="M57.7260246,1.6455801h0.1846924l0.0540047,0.3305011
			c0.0302391,0.031322,0.0788422,0.0577836,0.1458092,0.0799251c0.0680428,0.0216014,0.1404076,0.0329421,0.2203331,0.0329421
			c0.1317673,0,0.2311325-0.0286217,0.2980995-0.0864055c0.0669632-0.0572436,0.1004448-0.1371686,0.1004448-0.2392352
			c0-0.0664243-0.0183601-0.1236678-0.0550842-0.1717309c-0.0367203-0.047523-0.0864029-0.0896457-0.1490479-0.126368
			c-0.0637245-0.0361823-0.1501312-0.078305-0.2602959-0.1269081c-0.095047-0.0421227-0.1814537-0.0880257-0.2581367-0.1371688
			c-0.0766869-0.0491432-0.1414909-0.1134073-0.1965752-0.1917123c-0.0550804-0.078845-0.0831642-0.1717309-0.0831642-0.2786577
			c0-0.0988263,0.0270042-0.1863118,0.0820847-0.2640768c0.0540047-0.0772249,0.1306877-0.1377088,0.2311363-0.1809115
			c0.1004448-0.0437428,0.2170944-0.0658842,0.3499413-0.0658842c0.0820847,0,0.1566124,0.0070204,0.2268143,0.0210613
			c0.0691261,0.0135009,0.1404114,0.030782,0.2149353,0.0523833c0.0388832,0.0113407,0.0712852,0.0194412,0.095047,0.0237615
			l-0.0172844,0.4449883h-0.1782112l-0.0615616-0.31376c-0.0172806-0.0183612-0.0529251-0.0345622-0.106926-0.0496832
			c-0.0540047-0.015121-0.1123276-0.0226814-0.1749725-0.0226814c-0.2397766,0-0.3596649,0.093966-0.3596649,0.282438
			c0,0.0653442,0.018364,0.1215077,0.0540047,0.1684907c0.0367241,0.046443,0.0853271,0.0880256,0.1458092,0.1236679
			c0.0604858,0.0356423,0.1490517,0.0820852,0.266777,0.1382487c0.1177292,0.0561637,0.2138557,0.1074669,0.2883797,0.1539098
			c0.0745239,0.046983,0.1382484,0.1063868,0.1911697,0.1782113c0.0529251,0.0723647,0.0799255,0.15769,0.0799255,0.2559763
			c0,0.095046-0.0270004,0.1863118-0.0820847,0.2743375c-0.0540047,0.0874856-0.1360893,0.1587701-0.246254,0.2143936
			c-0.1090889,0.0550835-0.2419357,0.0826252-0.3985481,0.0826252c-0.0961227,0-0.183609-0.0086405-0.262455-0.0259216
			s-0.1609306-0.0394225-0.246254-0.0669641c-0.0583267-0.0189013-0.0972061-0.0286219-0.1155701-0.030782L57.7260246,1.6455801z"/>
		<path class="st1" d="M59.6723099,2.0700471V0.403501L59.428215,0.3689388V0.2215094h0.8014107v0.1474294L59.985527,0.4024209
			v1.6676261l0.2484169,0.0361824v0.1409488H59.428215V2.1019092L59.6723099,2.0700471z"/>
		<path class="st1" d="M60.7016144,0.7059203c0.0799255-0.1549899,0.1900902-0.2748775,0.329422-0.3591229
			c0.1404076-0.0847854,0.2970161-0.1269081,0.4719887-0.1269081c0.190094,0,0.3499413,0.0405026,0.480629,0.1215077
			c0.1306915,0.0810052,0.2278976,0.1954924,0.2937813,0.3434619c0.0648041,0.1479694,0.0972061,0.3229406,0.0972061,0.5249134
			c0,0.2068331-0.0399628,0.3888247-0.1198883,0.5459747c-0.0810051,0.15715-0.1911736,0.2786577-0.3326607,0.3639832
			c-0.1414909,0.0858655-0.3013382,0.1285281-0.4784698,0.1285281c-0.1846924,0-0.341301-0.0415826-0.4709129-0.1252878
			c-0.1296082-0.0831654-0.2268143-0.2008929-0.2916183-0.3515625c-0.0658836-0.1512096-0.0993652-0.3267208-0.0993652-0.5265335
			C60.5817261,1.0402015,60.6216888,0.8609101,60.7016144,0.7059203z M60.9932327,1.6931031
			c0.0432014,0.1274482,0.106926,0.2257345,0.1890106,0.2948588c0.083168,0.0691243,0.1814537,0.1036867,0.29702,0.1036867
			c0.1123276,0,0.2095337-0.0329423,0.2916183-0.0982864c0.0820847-0.0658841,0.1458092-0.1641704,0.1911736-0.2953987
			c0.0453606-0.1317685,0.0680428-0.2937788,0.0680428-0.4871111c0-0.1722709-0.0215988-0.3213204-0.0648041-0.4466084
			c-0.0432014-0.125288-0.1058464-0.2214141-0.1879311-0.2883783c-0.0820847-0.0664243-0.1814499-0.0999064-0.29702-0.0999064
			c-0.1134071,0-0.2116928,0.031322-0.2937775,0.0950461c-0.0831642,0.063184-0.1468887,0.1593102-0.1911736,0.2889184
			c-0.0453606,0.1290683-0.0669632,0.2905385-0.0669632,0.4833307C60.9284286,1.4155254,60.9500313,1.565655,60.9932327,1.6931031z"
			/>
		<path class="st1" d="M62.9287148,2.0716672V0.403501l-0.2192535-0.0345622V0.2215094h0.5259933l0.8953743,1.3085033
			l0.1414948,0.2635368V0.4024209l-0.2387009-0.0334821V0.2215094h0.6599274v0.1474294L64.4732132,0.403501v1.8436773H64.255043
			l-0.9180603-1.334965l-0.2073746-0.361823v1.5196568l0.2548981,0.031862v0.1452692h-0.675045V2.1019092L62.9287148,2.0716672z"/>
	</g>
	<g>
		<path class="st1" d="M1.5803043,4.7451763c0.1781554-0.31634,0.4299713-0.5573068,0.7543057-0.7228999
			c0.3237631-0.1661642,0.7029145-0.2489607,1.135741-0.2489607c0.2552419,0,0.5076289,0.0188432,0.7565897,0.057101
			C4.4764724,3.8681035,4.6877465,3.9075031,4.8619051,3.946903L4.7962389,4.9484563H4.1607037L3.9945393,4.2849417
			C3.9602785,4.2506809,3.8997514,4.2187042,3.8129578,4.1901536C3.7255929,4.161603,3.6033967,4.1478987,3.4457974,4.1478987
			c-0.2244072,0-0.4168379,0.0616693-0.5772922,0.1861496C2.7080512,4.457387,2.5852838,4.6412525,2.5002031,4.8845034
			C2.4151225,5.1266117,2.3722966,5.4258218,2.3722966,5.7809906c0,0.3403225,0.0354028,0.6406746,0.1062081,0.9021974
			C2.54931,6.9447112,2.6606572,7.1514173,2.8125463,7.3010221c0.1524599,0.1496053,0.3454616,0.2249784,0.5790052,0.2249784
			c0.1301906,0,0.2512448-0.0159883,0.362592-0.0491071c0.1113472-0.0319762,0.1947148-0.0787992,0.2489607-0.1381845V6.1944027
			L3.4783452,6.1315913v-0.407702h1.7067521v0.407702L4.9024467,6.1841245v1.4480844
			c-0.0473938,0-0.1027818,0.0079942-0.1673059,0.0228405c-0.0639534,0.0159879-0.14675,0.0376863-0.2483902,0.066237
			C4.2600594,7.7829556,4.0584927,7.8309207,3.88205,7.8640389C3.7056077,7.8982997,3.5137479,7.914288,3.3070419,7.914288
			c-0.4162672,0-0.7754331-0.0879354-1.0757849-0.2638068C1.930334,7.4734674,1.7019296,7.231359,1.5460435,6.9241548
			C1.3901575,6.616951,1.3125,6.2697763,1.3125,5.8814888C1.3125,5.4395261,1.4015777,5.0615168,1.5803043,4.7451763z"/>
		<path class="st1" d="M5.983942,4.2483969L5.6310573,4.1707392V3.7755997h1.7661371v0.3951395L6.9381013,4.2518229v2.0225215
			c0,0.4259739,0.0725188,0.7423143,0.2175555,0.9467363c0.1444659,0.205564,0.3637338,0.3072038,0.6572337,0.3072038
			c0.2900739,0,0.5047736-0.1084919,0.6441007-0.3254762c0.1398973-0.2181263,0.2095613-0.523046,0.2095613-0.9147601V4.2483969
			l-0.467659-0.0776577V3.7755997h1.4241018v0.3951395L9.2564068,4.2483969v1.9973969
			c0,0.3860035-0.0668087,0.7034855-0.1998539,0.9524465c-0.1330462,0.248961-0.3169117,0.4305425-0.5504551,0.5447445
			C8.2725544,7.8571873,7.9996109,7.914288,7.687839,7.914288c-0.3894296,0-0.7091956-0.0582428-0.9592986-0.1758714
			C6.4790087,7.6196465,6.2922878,7.434639,6.1689496,7.183394C6.0456109,6.9310069,5.983942,6.6032467,5.983942,6.2001128
			V4.2483969z"/>
		<path class="st1" d="M10.629117,7.4768934V4.2381186l-0.4533825-0.0787997V3.7755997h1.831233v0.3837192l-0.4562387,0.0753736
			v3.2422009l0.4619484,0.0765157V7.912004h-1.8318033V7.547699L10.629117,7.4768934z"/>
		<path class="st1" d="M13.2715836,7.4609056V4.2666693l-0.4048462-0.0753736V3.7755997h0.8450956
			c0.1142025,0,0.2746563,0,0.480792,0c0.1810102,0,0.3443193,0,0.489356,0c0.682929,0,1.1951265,0.1667352,1.5365915,0.4990637
			s0.5121956,0.8074098,0.5121956,1.4263854c0,0.4271164-0.0833664,0.8074098-0.2512436,1.1420226
			c-0.1673069,0.3334703-0.4065609,0.5961356-0.7171907,0.7845693C15.451704,7.8172164,15.088541,7.912004,14.6739874,7.912004
			c-0.0873652,0-0.2626657,0-0.5276146,0c-0.0433969,0-0.1096344,0-0.1992826,0c-0.0896492,0-0.161025,0-0.2135582,0h-0.8862095
			V7.5271425L13.2715836,7.4609056z M14.3856268,7.5214324c0.0759439,0.0068521,0.1638803,0.0102782,0.2638073,0.0102782
			c0.3386087,0,0.6029873-0.1393266,0.793705-0.4179802c0.1901464-0.2786531,0.284935-0.7023435,0.284935-1.2710705
			c0-0.5401764-0.0947886-0.9581566-0.284935-1.2550826c-0.1907177-0.2957835-0.4865017-0.4442468-0.8890638-0.4442468
			c-0.1124897,0-0.1998539,0.0068521-0.263237,0.0194144c-0.0633821,0.0137043-0.0999269,0.0216985-0.1090631,0.0228405v3.2970181
			C14.2417316,7.502018,14.3096819,7.5145802,14.3856268,7.5214324z"/>
		<path class="st1" d="M17.7888527,7.4780354V4.2381186l-0.4322548-0.0787997V3.7755997h3.0086575l0.0759449,0.9592984h-0.4431057
			l-0.1901474-0.5641589h-1.098053v1.4092555h0.6903515l0.1004982-0.455667h0.3968525v1.3829889h-0.3968525l-0.0947876-0.4865012
			h-0.6960621v1.4595041h1.2231045l0.3397522-0.726326l0.4648037,0.1301904L20.5959435,7.912004h-3.2313519V7.547699
			L17.7888527,7.4780354z"/>
		<path class="st1" d="M21.7054176,7.4768934V4.2381186l-0.4185505-0.0787997V3.7755997h1.8586407v0.3837192l-0.5161934,0.0787997
			v3.2067986h1.0706463l0.3591652-1.0814953l0.5070572,0.0753736L24.4062996,7.912004h-3.1251431V7.547699L21.7054176,7.4768934z"/>
		<path class="st1" d="M25.58601,7.4768934V4.2381186l-0.4533825-0.0787997V3.7755997h1.8318024v0.3837192l-0.4568081,0.0753736
			v3.2422009l0.4613762,0.0765157V7.912004h-1.8306618V7.547699L25.58601,7.4768934z"/>
		<path class="st1" d="M28.0950317,7.4803195V4.2346926l-0.4396782-0.0753736V3.7755997h1.3555813l1.5816994,2.3993886
			l0.295784,0.6315384V4.2324085l-0.4773655-0.0730896V3.7755997h1.4286709v0.3837192l-0.4294014,0.0753736V7.912004H30.655447
			l-1.6662121-2.5467095l-0.3700142-0.7445984v2.8596234l0.5710106,0.0673795v0.364305h-1.5348778V7.547699L28.0950317,7.4803195z"
			/>
		<path class="st1" d="M32.8252869,7.4780354V4.2381186l-0.4316826-0.0787997V3.7755997h3.0080872l0.0765152,0.9592984h-0.4431038
			l-0.1907196-0.5641589h-1.0974846v1.4092555h0.6909256l0.1004982-0.455667h0.3962822v1.3829889h-0.3962822l-0.095932-0.4865012
			h-0.6954918v1.4595041h1.2231064l0.33918-0.726326l0.4648056,0.1301904L35.633522,7.912004h-3.2319221V7.547699
			L32.8252869,7.4780354z"/>
		<path class="st1" d="M38.3778,7.4803195l0.3780098-3.2456269l-0.5470276-0.0753736V3.7755997h1.7998276l0.7091942,2.4050987
			l0.1004982,0.5276141l0.089077-0.5276141l0.5949936-2.4050987h1.8181v0.3837192l-0.589283,0.0787997l0.4830742,3.2387748
			l0.4625206,0.0708055v0.364305h-1.861496V7.547699l0.4590912-0.0673795l-0.2797966-2.3948202l-0.106205-0.9947014
			l-0.1598854,0.7697229l-0.748024,2.8938842h-0.6657982l-0.8770752-2.6928883L39.197773,4.0748096l-0.0650978,1.0084057
			l-0.175869,2.3936782l0.5515976,0.0708055v0.364305h-1.6011162V7.547699L38.3778,7.4803195z"/>
		<path class="st1" d="M44.1176033,7.4780354l1.255085-3.7024357h0.9592972l1.2642174,3.7047198l0.3152008,0.0673795v0.364305
			h-1.7210274V7.547699l0.3917122-0.0708055l-0.1952858-0.6703668h-1.3670006l-0.1907196,0.681787l0.4316864,0.0593853v0.364305
			h-1.4640732l-0.0057106-0.364305L44.1176033,7.4780354z M46.2634621,6.3874044l-0.491066-1.6559324l-0.0845108-0.3768673
			L45.6033745,4.731472l-0.4670868,1.6559324H46.2634621z"/>
		<path class="st1" d="M48.721096,7.4803195V4.2346926l-0.4396782-0.0753736V3.7755997h1.3555794l1.5816994,2.3993886
			l0.295784,0.6315384V4.2324085L51.037117,4.1593189V3.7755997h1.428669v0.3837192l-0.4294014,0.0753736V7.912004h-0.7548752
			l-1.6662102-2.5467095L49.245285,4.6206961v2.8596234l0.5710106,0.0673795v0.364305h-1.5348778V7.547699L48.721096,7.4803195z"/>
		<path class="st1" d="M53.2526398,4.2483969L52.898613,4.1707392V3.7755997h1.7667084v0.3951395l-0.4590912,0.0810838v2.0225215
			c0,0.4259739,0.0719452,0.7423143,0.2169838,0.9467363c0.1450348,0.205564,0.3643036,0.3072038,0.6578026,0.3072038
			c0.2900734,0,0.504776-0.1084919,0.6441002-0.3254762c0.139328-0.2181263,0.208992-0.523046,0.208992-0.9147601V4.2483969
			l-0.4670868-0.0776577V3.7755997h1.424099v0.3951395l-0.3665886,0.0776577v1.9973969
			c0,0.3860035-0.067379,0.7034855-0.199852,0.9524465c-0.1336174,0.248961-0.3163414,0.4305425-0.550457,0.5447445
			c-0.2341118,0.1142025-0.5059128,0.1713033-0.817688,0.1713033c-0.3894272,0-0.7091942-0.0582428-0.9592972-0.1758714
			c-0.250103-0.1187701-0.4373932-0.3037777-0.5595894-0.5550227c-0.1233406-0.252387-0.185009-0.5801473-0.185009-0.9832811
			V4.2483969z"/>
		<path class="st1" d="M57.4153099,7.4780354l1.255085-3.7024357h0.9592972l1.2642174,3.7047198l0.3152008,0.0673795v0.364305
			h-1.7210274V7.547699l0.3917122-0.0708055l-0.1952858-0.6703668h-1.3670006l-0.1907196,0.681787l0.4316864,0.0593853v0.364305
			h-1.4640732l-0.0057106-0.364305L57.4153099,7.4780354z M59.5611725,6.3874044L59.0701027,4.731472l-0.0845108-0.3768673
			L58.9010811,4.731472l-0.4670868,1.6559324H59.5611725z"/>
		<path class="st1" d="M62.013092,7.4768934V4.2381186l-0.4179802-0.0787997V3.7755997h1.859211v0.3837192l-0.5161934,0.0787997
			v3.2067986h1.0700722l0.3585968-1.0814953L64.875,6.4387956L64.7151184,7.912004h-3.1257172V7.547699L62.013092,7.4768934z"/>
	</g>
</g>
</svg>
